<svg width="493" height="493" viewBox="0 0 493 493" fill="none" xmlns="http://www.w3.org/2000/svg">
<path d="M486.44 35.88C494.437 27.8829 494.437 14.9169 486.44 6.91977C478.443 -1.07732 465.477 -1.07732 457.479 6.91977L6.91884 457.479C-1.07825 465.477 -1.07825 478.443 6.91884 486.44C14.9159 494.437 27.882 494.437 35.8791 486.44L486.44 35.88Z" fill="#2051AC"/>
<path d="M35.88 6.91939C27.8829 -1.07771 14.9169 -1.07771 6.91982 6.91939C-1.07728 14.9165 -1.07728 27.8825 6.91982 35.8796L457.48 486.439C465.478 494.436 478.444 494.436 486.441 486.439C494.438 478.442 494.438 465.476 486.441 457.479L35.88 6.91939Z" fill="#2051AC"/>
</svg>
